<svg width="18" height="22" viewBox="0 0 18 22" fill="none" xmlns="http://www.w3.org/2000/svg">
<path d="M17.4279 20.9239C16.8106 20.4829 16.1068 20.1545 15.4045 19.8806C14.1372 19.3864 12.0283 18.8001 9.10758 18.7665C9.15502 18.3571 9.2674 17.769 9.53055 17.1142C9.792 16.4638 10.1459 15.8771 10.5893 15.3558C10.7975 15.4427 11.3334 15.6331 12.0338 15.6331C12.6824 15.6331 13.4718 15.4696 14.2714 14.9094C16.1683 13.5802 16.0389 11.5282 16.0324 11.4415C16.0241 11.3293 15.9576 11.23 15.8578 11.1808C15.8293 11.1668 15.5594 11.0373 15.1328 10.9495C15.4807 10.3962 15.7358 9.79551 15.8931 9.15809C15.9907 8.76217 15.3851 8.6088 15.2874 9.00463C15.1216 9.67685 14.8339 10.3036 14.4322 10.8696C13.7562 10.8534 12.9075 11.0087 12.038 11.6179C11.39 12.072 10.9853 12.6247 10.7328 13.1528C10.1851 13.2235 9.71426 13.1975 9.39529 13.1578C10.0295 12.2908 11.6825 10.1894 13.5436 9.09191C13.8916 8.88669 13.5776 8.33972 13.2297 8.54502C11.4186 9.61299 9.84224 11.5141 9.08248 12.5235C9.03866 11.5387 9.20713 9.80179 10.6375 8.34752C11.5697 7.39968 12.6793 6.85047 13.9353 6.71524C14.5928 6.64445 15.1217 6.71165 15.3851 6.75974C15.4128 6.92484 15.4469 7.19143 15.4527 7.5261C15.4597 7.93029 16.084 7.9254 16.0769 7.51501C16.0656 6.85836 15.9568 6.43143 15.9522 6.41359C15.924 6.30463 15.8408 6.21913 15.7337 6.18901C15.7025 6.18024 14.9541 5.97447 13.8981 6.08297C12.9263 6.1829 11.4951 6.57937 10.1954 7.90077C10.087 8.01103 9.98549 8.12273 9.88989 8.2354C10.0652 7.68834 10.2566 7.09665 10.4522 6.50158C11.0176 6.32674 12.4139 5.72762 13.0137 3.96453C13.7664 1.75132 12.4659 0.176571 12.4102 0.110598C12.3378 0.0248418 12.2258 -0.0152734 12.1163 0.00531147C12.0326 0.0210454 10.058 0.415871 9.29516 2.65836C8.66184 4.5202 9.56435 5.97523 9.84016 6.35888C9.65816 6.91299 9.48044 7.46233 9.31626 7.97446C9.18986 7.11854 8.8604 6.11431 8.11201 5.14787C6.9751 3.67964 5.59997 3.11406 4.64652 2.89808C3.61054 2.66342 2.84358 2.77786 2.81141 2.78288C2.70149 2.79993 2.60885 2.87497 2.56815 2.97983C2.55936 3.00244 2.35252 3.54296 2.28193 4.37189C2.24739 4.77848 2.8693 4.83277 2.90393 4.4263C2.94367 3.95935 3.03203 3.59489 3.09113 3.39145C3.35866 3.37538 3.89155 3.37225 4.53564 3.52141C5.76723 3.8066 6.80525 4.48527 7.6209 5.53852C8.3936 6.53643 8.77671 7.69407 8.75956 8.97937C8.75394 9.39815 8.70442 9.76336 8.64973 10.0439C7.41493 7.7131 5.66656 5.92238 5.5899 5.84443C5.30572 5.55544 4.86364 6.00202 5.14774 6.29105C5.16617 6.30982 6.96848 8.15707 8.16245 10.463C7.88348 10.4565 7.52156 10.4253 7.11565 10.3343C5.89351 10.0603 4.87147 9.40178 4.078 8.37713C3.52555 7.66366 3.15976 6.87186 2.99079 6.02374C2.91113 5.62377 2.29912 5.74897 2.37886 6.14898C2.56727 7.09479 2.97372 7.97589 3.58694 8.76778C4.69713 10.2015 6.06019 10.7503 7.00811 10.9582C7.48048 11.0618 7.9673 11.111 8.45066 11.095V12.2343V12.2533V16.4223C8.35648 16.2165 8.25476 16.0216 8.14764 15.8372C8.18996 15.4627 8.34395 13.2541 6.34686 11.6588C4.18001 9.92796 1.92372 10.8058 1.8287 10.8441C1.72553 10.8856 1.65182 10.9796 1.63525 11.0909C1.62006 11.1929 1.28794 13.6106 3.48202 15.3632C4.5011 16.1772 5.56601 16.3897 6.40018 16.3897C6.94147 16.3897 7.38538 16.3003 7.65674 16.2276C8.09133 16.9969 8.34824 17.846 8.4254 18.7688C6.81 18.7965 5.30293 18.9845 3.94053 19.3295C3.5499 19.4285 3.70122 20.0422 4.0919 19.9434C5.41243 19.6089 6.87721 19.4271 8.45066 19.4012V20.1284C8.45066 20.5364 9.07495 20.5364 9.07495 20.1284V19.3994C12.7564 19.4365 15.1092 20.35 16.2792 20.9647H1.37501C1.67837 20.8011 2.06676 20.6158 2.54567 20.4312C2.92199 20.2862 2.70004 19.6946 2.32376 19.8398C1.54627 20.1395 0.992656 20.4436 0.665072 20.6459C0 21.0566 0 21.1557 0 21.281C0 21.4558 0.139715 21.5974 0.312143 21.5974H17.376C17.8504 21.5974 17.6637 21.0924 17.4279 20.9239ZM12.3931 12.1383C13.7101 11.2155 14.961 11.5197 15.4108 11.6794C15.3933 12.168 15.2188 13.4763 13.9164 14.3889C12.7354 15.2166 11.5865 15.018 11.0631 14.856C11.6784 14.2724 12.4268 13.7878 13.3051 13.4064C13.6751 13.2457 13.4294 12.6641 13.0593 12.8248C12.2668 13.1689 11.6137 13.5786 11.0745 14.0175C11.2368 13.4304 11.5972 12.696 12.3931 12.1383ZM10.0385 13.8306C10.1783 13.8306 10.3273 13.8255 10.4835 13.814C10.3807 14.1755 10.341 14.4935 10.3268 14.7168C9.73565 15.3527 9.33956 16.0088 9.07495 16.5902V13.7503C9.29387 13.7886 9.62749 13.8306 10.0385 13.8306ZM9.88536 2.86463C10.4081 1.32798 11.5921 0.818711 12.0483 0.675882C12.3192 1.0807 12.9402 2.23907 12.4234 3.75839C12.0365 4.896 11.2599 5.4574 10.7101 5.72303C11.1154 4.50885 11.5159 3.35859 11.8065 2.63643C11.9585 2.25856 11.3804 2.0196 11.2284 2.39751C10.9253 3.15092 10.5122 4.3378 10.0978 5.58024C9.81394 5.02972 9.48427 4.04375 9.88536 2.86463ZM3.86849 14.8662C3.07244 14.2304 2.55857 13.421 2.34111 12.4607C2.23449 11.9899 2.22874 11.5948 2.23794 11.3743C2.77 11.2232 4.40159 10.9106 5.96043 12.1559C6.73442 12.7741 7.23277 13.5707 7.44169 14.5234C7.47208 14.6619 7.49368 14.7937 7.50899 14.9167C7.3011 14.6627 7.08956 14.439 6.88587 14.2453C5.80898 13.2212 4.74004 12.7924 4.69504 12.7746C4.31985 12.6265 4.09332 13.2161 4.46851 13.3642C4.47838 13.3681 5.46895 13.7655 6.45869 14.7067C6.77492 15.0075 7.05339 15.3262 7.29478 15.6621C6.60319 15.805 5.18103 15.9147 3.86849 14.8662Z" fill="#1E1E1E"/>
</svg>
